
    <svg
      xmlns="http://www.w3.org/2000/svg"
      width="500"
      height="110"
      fill="none"
      viewBox="0 0 836 153"
    >
      <path
        fill="#000"
        d="M770.1 40.5h18.5l32.8 53.6h1.2l-1.2-9.5V40.5h13.7V112h-18.5l-32.8-53.6h-1.2l1.2 9.5V112h-13.7V40.5zM717.1 38.2c23.2 0 39.9 16.7 39.9 38.1 0 21.4-16.7 38.1-39.9 38.1s-39.9-16.7-39.9-38.1c0-21.4 16.6-38.1 39.9-38.1zm0 63.1c14.9 0 25.6-10.7 25.6-25s-10.7-25-25.6-25c-14.9 0-25.6 10.7-25.6 25s10.7 25 25.6 25zM650.3 40.5H664V112h-13.7V40.5zM575.8 40.5h65v13.1h-25.6V112h-13.7V53.6h-25.7V40.5zM525.1 40.5h32.4l20.1 71.5h-13.7l-4.8-17.3h-35.8l-4.8 17.3h-13.7l20.3-71.5zm30.5 41.2l-7.7-28h-13.1l-7.7 28h28.5zM441.8 40.5h65v13.1h-25.6V112h-13.7V53.6h-25.7V40.5zM388.7 90.6c.6 2.1 1.7 4.1 3.2 5.7 2.7 2.9 7.2 5.6 15.3 5.6 11.9 0 16.7-4.8 16.7-9.5 0-7.6-11.6-9.4-23.2-11.9-11.7-2.5-23.2-7.4-23.2-20.9 0-11.3 10.1-21.5 29.2-21.5 13.4 0 21.1 5.4 25.5 10.7 2.6 3.2 4.4 6.8 5.5 10.7h-14.3c-.6-1.5-1.5-3.1-3-4.4-2.4-2.3-6.6-4.5-13.7-4.5-10.8 0-14.9 3.6-14.9 8.3 0 5.4 6.6 7.9 14.7 9.5 13.7 2.7 31.8 6.1 31.8 23.2 0 11.9-10.6 22.6-31 22.6-15.1 0-23.6-5.8-28.1-11.9-2.6-3.5-4.4-7.5-5.2-11.9h14.7v.2zM348 76.3c0-22.1-17.9-38.1-42.7-38.1h-31.9v76.3h31.9c24.7-.1 42.7-16.1 42.7-38.2zm-51.9 18.8V57.5h8.6c11.9 0 19.4 7.2 19.4 18.8 0 11.6-7.4 18.8-19.4 18.8h-8.6zM248.3 87.5c2.4-1.1 4.6-2.8 6.6-4.9 4.5-4.6 6.7-10.3 6.7-17 0-16.2-12.7-27.4-30.8-27.4h-41v76.3h22.7v-22h13.9l12.4 22h22.9l-14.8-26.3 1.4-.7zm-19.7-13.3h-16V56.9h16c5.6 0 9.8 3.7 9.8 8.6 0 5-4.2 8.7-9.8 8.7z"
      ></path>
      <path
        fill="#000"
        stroke="#000"
        d="M76.644 110.532l-.174-.064-.174.064L.5 138.601v-24.324l75.97-28.133 76.03 28.133v24.324l-75.856-28.069z"
      ></path>
      <path
        fill="#19C1CE"
        d="M76.47 111.001L0 139.319 28.384 153l48.086-17.803L124.616 153 153 139.319l-76.53-28.318z"
      ></path>
      <path
        fill="#000"
        stroke="#000"
        d="M76.296 42.468l.174.064.174-.064L152.5 14.399v24.324L76.47 66.856.5 38.723V14.4l75.796 28.069z"
      ></path>
      <path
        fill="#19C1CE"
        d="M76.47 41.999L153 13.681 124.616 0 76.47 17.803 28.384 0 0 13.68 76.47 42z"
      ></path>
    </svg>
